<svg width="163" height="35" viewBox="0 0 163 35" fill="none" xmlns="http://www.w3.org/2000/svg">
<g clip-path="url(#clip0)">
<path fill-rule="evenodd" clip-rule="evenodd" d="M-0.150879 0.701993V34.302H13.3811C15.5625 34.3553 17.731 33.954 19.7488 33.1235C21.7666 32.2929 23.5894 31.0514 25.1011 29.478C26.6508 27.9007 27.8667 26.0273 28.6763 23.9697C29.4858 21.912 29.8725 19.7124 29.8131 17.502C29.8725 15.2916 29.4858 13.092 28.6763 11.0343C27.8667 8.97669 26.6508 7.1033 25.1011 5.52599C23.5892 3.9527 21.7665 2.7113 19.7487 1.88079C17.731 1.05028 15.5625 0.648834 13.3811 0.701993H-0.150879ZM7.58212 26.91V8.09099H13.3821C14.5846 8.04309 15.7839 8.24675 16.9032 8.68895C18.0224 9.13115 19.0371 9.80215 19.8821 10.659C20.7306 11.5766 21.3876 12.6541 21.815 13.8285C22.2423 15.0029 22.4314 16.2507 22.3711 17.499C22.4315 18.7473 22.2424 19.9951 21.8151 21.1695C21.3877 22.3439 20.7306 23.4214 19.8821 24.339C19.0372 25.196 18.0226 25.8672 16.9033 26.3094C15.784 26.7516 14.5847 26.9551 13.3821 26.907H7.58212V26.91ZM42.3821 20.958H54.4641V13.658H42.3781V8.09099H55.6691V0.701993H34.6451V34.302H55.9101V26.91H42.3781V20.958H42.3821ZM78.7251 34.302L89.7441 0.701993H81.2861L73.7951 25.422L66.3041 0.701993H57.8471L68.8661 34.302H78.7251ZM93.1251 34.302H100.858V0.701993H93.1251V34.302ZM131.74 32.886C134.233 31.574 136.322 29.6076 137.781 27.198L131.111 23.358C130.381 24.659 129.279 25.7121 127.946 26.382C126.505 27.1262 124.904 27.504 123.282 27.482C121.962 27.5449 120.643 27.3343 119.408 26.8635C118.173 26.3927 117.048 25.6718 116.105 24.746C115.195 23.7791 114.489 22.6393 114.028 21.3942C113.568 20.1492 113.362 18.8242 113.423 17.498C113.362 16.1718 113.568 14.8468 114.028 13.6017C114.489 12.3567 115.195 11.2168 116.105 10.25C117.048 9.32422 118.173 8.60333 119.408 8.13252C120.643 7.6617 121.962 7.45113 123.282 7.51399C124.893 7.49098 126.486 7.86172 127.921 8.59399C129.263 9.2718 130.373 10.3326 131.111 11.642L137.781 7.80199C136.294 5.39746 134.191 3.43378 131.691 2.11399C129.109 0.720899 126.216 0.00268346 123.282 0.0259933C113.503 -0.246007 105.485 7.71699 105.691 17.498C105.483 27.279 113.5 35.245 123.279 34.974C126.229 35.0012 129.139 34.283 131.737 32.886H131.74ZM149.621 20.958H161.703V13.658H149.618V8.09099H162.908V0.701993H141.885V34.302H163.15V26.91H149.618V20.958H149.621Z" fill="black"/>
</g>
<defs>
<clipPath id="clip0">
<rect width="163" height="35" fill="white"/>
</clipPath>
</defs>
</svg>
